<svg width="24" height="24" viewBox="0 0 24 24" fill="none" xmlns="http://www.w3.org/2000/svg">
<path d="M18.0481 0.47998H10.3681C9.60007 0.47998 8.83207 0.86398 8.35207 1.24798L3.93607 5.56798C3.36007 6.04798 2.97607 6.91198 2.97607 7.77598V20.64C2.97607 22.272 4.32007 23.616 5.95207 23.616H18.0481C19.6801 23.616 21.0241 22.272 21.0241 20.64V3.45598C21.0241 1.82398 19.6801 0.47998 18.0481 0.47998ZM8.92807 15.168C8.73607 15.36 8.54408 15.456 8.25607 15.456C7.96807 15.456 7.77607 15.36 7.58407 15.168L5.95207 13.536C5.56807 13.152 5.56807 12.576 5.95207 12.192L7.58407 10.56C7.96807 10.176 8.54407 10.176 8.92807 10.56C9.31207 10.944 9.31207 11.52 8.92807 11.904L7.96807 12.864L8.92807 13.824C9.31207 14.208 9.31207 14.784 8.92807 15.168ZM14.4961 11.424L11.5201 18.144C11.3281 18.528 11.0401 18.72 10.6561 18.72C10.5601 18.72 10.3681 18.72 10.2721 18.624C9.79207 18.432 9.60007 17.856 9.79207 17.376L12.8641 10.752C13.0561 10.272 13.6321 10.08 14.1121 10.272C14.4961 10.368 14.6881 10.944 14.4961 11.424ZM18.0481 16.704L16.4161 18.24C16.0321 18.624 15.4561 18.624 15.0721 18.24C14.6881 17.856 14.6881 17.28 15.0721 16.896L16.0321 15.936L15.0721 14.976C14.6881 14.592 14.6881 14.016 15.0721 13.632C15.4561 13.248 16.0321 13.248 16.4161 13.632L18.0481 15.264C18.4321 15.648 18.4321 16.32 18.0481 16.704Z" fill="#333333"/>
</svg>
