<svg width="20" height="24" viewBox="0 0 20 24" fill="none" xmlns="http://www.w3.org/2000/svg">
<path d="M9.81807 6.54546C11.0235 6.54546 11.9999 5.56911 11.9999 4.36362C11.9999 3.95453 11.8854 3.56728 11.689 3.24L9.81807 0L7.94714 3.24C7.75078 3.56728 7.63623 3.95453 7.63623 4.36362C7.63623 5.56911 8.61263 6.54546 9.81807 6.54546Z" fill="#333333"/>
<path d="M16.3636 9.81819H10.9091V7.63635H8.72724V9.81819H3.27273C1.46726 9.81819 0 11.2854 0 13.0909V14.7709C0 15.9491 0.959984 16.9091 2.13817 16.9091C2.71089 16.9091 3.24542 16.6854 3.64909 16.2818L5.98362 13.9527L8.31273 16.2763C9.12002 17.0836 10.5273 17.0836 11.3345 16.2763L13.6691 13.9527L15.9982 16.2763C16.4018 16.6799 16.9364 16.9036 17.5091 16.9036C18.6873 16.9036 19.6473 15.9436 19.6473 14.7654V13.0909C19.6364 11.2854 18.1691 9.81819 16.3636 9.81819Z" fill="#333333"/>
<path d="M14.8309 17.4382L13.6582 16.2655L12.48 17.4382C11.0564 18.8619 8.56913 18.8619 7.14549 17.4382L5.97273 16.2655L4.79455 17.4382C4.09091 18.1527 3.14729 18.5455 2.13817 18.5455C1.34724 18.5455 0.610875 18.2945 0 17.8746V22.9091C0 23.5091 0.490909 24 1.09089 24H18.5454C19.1454 24 19.6363 23.5091 19.6363 22.9091V17.8746C19.0254 18.2946 18.2945 18.5455 17.4982 18.5455C16.4891 18.5455 15.5455 18.1528 14.8309 17.4382Z" fill="#333333"/>
</svg>
