<svg width="24" height="24" viewBox="0 0 24 24" fill="none" xmlns="http://www.w3.org/2000/svg">
<g clip-path="url(#clip0_257_2266)">
<path d="M3.225 20.6249H15.3V20.5499C15.3375 20.2874 15.4125 20.0249 15.525 19.7249L15.5625 19.6124H1.575C0.7125 19.6124 0 20.2124 0 20.9249C0 21.6374 0.7125 22.2374 1.575 22.2374H15.6L15.5625 22.1249C15.45 21.8624 15.375 21.5624 15.3375 21.2999V21.2249H3.225C3.0375 21.2249 2.8875 21.0749 2.8875 20.8874C2.8875 20.7749 3.0375 20.6249 3.225 20.6249Z" fill="#333333"/>
<path d="M1.16245 1.79993C0.524951 1.98743 0.0749512 2.54993 0.0749512 3.22493V19.4249C0.374951 19.1624 0.749951 19.0124 1.16245 18.9374V1.79993Z" fill="#333333"/>
<path d="M18.3749 15.6375C18.3374 15.6375 18.2624 15.6375 18.2249 15.6L14.9624 14.25V16.65C15.4124 16.6875 15.8624 16.8 16.2374 16.9125C16.2749 16.9125 16.2749 16.9125 16.3124 16.95C17.3624 17.2875 18.0374 17.85 18.3749 18.225C18.8999 17.7 19.9874 16.8375 21.7874 16.65V14.25L18.5249 15.6C18.4874 15.6375 18.4499 15.6375 18.3749 15.6375Z" fill="#333333"/>
<path d="M14.175 17.0625V13.95L11.55 12.9C11.4 12.825 11.2875 12.675 11.2875 12.525C11.2875 12.375 11.4 12.225 11.55 12.15L15.75 10.4625V1.72498H1.98755V18.9H15.75V17.625C15.375 17.5125 15 17.475 14.55 17.4375C14.3625 17.4375 14.175 17.2875 14.175 17.0625ZM5.92505 13.2H2.85005C2.62505 13.2 2.43755 13.0125 2.43755 12.7875C2.43755 12.5625 2.62505 12.375 2.85005 12.375H5.92505C6.15005 12.375 6.33755 12.5625 6.33755 12.7875C6.33755 13.0125 6.15005 13.2 5.92505 13.2ZM9.00005 10.9875H2.85005C2.62505 10.9875 2.43755 10.8 2.43755 10.575C2.43755 10.35 2.62505 10.1625 2.85005 10.1625H9.00005C9.22505 10.1625 9.41255 10.35 9.41255 10.575C9.41255 10.8 9.22505 10.9875 9.00005 10.9875ZM9.60005 8.73748H2.85005C2.62505 8.73748 2.43755 8.54998 2.43755 8.32498C2.43755 8.09998 2.62505 7.91248 2.85005 7.91248H9.60005C9.82505 7.91248 10.0125 8.09998 10.0125 8.32498C9.97505 8.54998 9.78755 8.73748 9.60005 8.73748ZM2.43755 6.11248C2.43755 5.88748 2.62505 5.69998 2.85005 5.69998H9.00005C9.22505 5.69998 9.41255 5.88748 9.41255 6.11248C9.41255 6.33748 9.22505 6.52498 9.00005 6.52498H2.85005C2.62505 6.48748 2.43755 6.33748 2.43755 6.11248ZM10.9875 4.27498H2.85005C2.62505 4.27498 2.43755 4.08748 2.43755 3.86248C2.43755 3.63748 2.62505 3.44998 2.85005 3.44998H10.9875C11.2125 3.44998 11.4 3.63748 11.4 3.86248C11.3625 4.08748 11.2125 4.27498 10.9875 4.27498Z" fill="#333333"/>
<path d="M23.7751 17.7749C23.7751 17.4749 23.6251 17.2499 23.3626 17.1374V12.7874L24.0001 12.5249L18.3751 10.2374L16.3126 11.0999L12.7876 12.5249L14.7376 13.3124L18.3751 14.8124L22.0501 13.3124L22.7251 13.0499V17.1374C22.5001 17.2499 22.3126 17.5124 22.3126 17.7749C22.3126 17.9249 22.3501 18.0749 22.4626 18.2249L22.2751 19.1999C22.2751 19.2749 22.2751 19.3499 22.3501 19.4249C22.3876 19.4999 22.4626 19.5374 22.5751 19.5374H23.5876C23.6626 19.5374 23.7376 19.4999 23.8126 19.4249C23.8501 19.3499 23.8876 19.2749 23.8876 19.1999L23.6251 18.2249C23.7376 18.1124 23.7751 17.9624 23.7751 17.7749Z" fill="#333333"/>
</g>
<defs>
<clipPath id="clip0_257_2266">
<rect width="24" height="24" fill="white"/>
</clipPath>
</defs>
</svg>
