<svg width="28" height="28" viewBox="0 0 28 28" fill="none" xmlns="http://www.w3.org/2000/svg">
<g clip-path="url(#clip0_344_4602)">
<path d="M20.9214 12.7628C20.7796 12.4495 20.4681 12.25 20.1251 12.25H16.6251V0.875C16.6251 0.392 16.2331 0 15.7501 0H12.2501C11.7671 0 11.3751 0.392 11.3751 0.875V12.25H7.87511C7.53211 12.25 7.22061 12.4513 7.07886 12.7628C6.93536 13.076 6.99136 13.4417 7.21711 13.7008L13.3421 20.7008C13.5084 20.8915 13.7481 21 14.0001 21C14.2521 21 14.4919 20.8898 14.6581 20.7008L20.7831 13.7008C21.0106 13.4435 21.0631 13.076 20.9214 12.7628Z" fill="white"/>
<path d="M23.625 19.25V24.5H4.375V19.25H0.875V26.25C0.875 27.2178 1.659 28 2.625 28H25.375C26.3428 28 27.125 27.2178 27.125 26.25V19.25H23.625Z" fill="white"/>
</g>
<defs>
<clipPath id="clip0_344_4602">
<rect width="28" height="28" fill="white"/>
</clipPath>
</defs>
</svg>
