<svg width="16" height="16" viewBox="0 0 16 16" fill="none" xmlns="http://www.w3.org/2000/svg">
<g clip-path="url(#clip0_681_840)">
<path d="M10.2625 8L15.5312 2.73125C15.8333 2.42916 16 2.02709 16 1.6C16 1.17291 15.8333 0.770844 15.5312 0.46875C15.2292 0.166656 14.8271 0 14.4 0C13.9729 0 13.5708 0.166656 13.2688 0.46875L8 5.7375L2.73125 0.46875C2.42916 0.166656 2.02709 0 1.6 0C1.17291 0 0.770844 0.166656 0.46875 0.46875C0.166656 0.770844 0 1.17291 0 1.6C0 2.02709 0.166656 2.42916 0.46875 2.73125L5.7375 8L0.46875 13.2688C0.166656 13.5708 0 13.9729 0 14.4C0 14.8271 0.166656 15.2292 0.46875 15.5312C0.771344 15.8333 1.17291 16 1.6 16C2.02709 16 2.42866 15.8333 2.73125 15.5312L8 10.2625L13.2688 15.5312C13.5713 15.8333 13.9729 16 14.4 16C14.8271 16 15.2287 15.8333 15.5312 15.5312C15.8333 15.2292 16 14.8271 16 14.4C16 13.9729 15.8333 13.5708 15.5312 13.2688L10.2625 8Z" fill="white"/>
</g>
<defs>
<clipPath id="clip0_681_840">
<rect width="16" height="16" fill="white"/>
</clipPath>
</defs>
</svg>
