<svg width="24" height="24" viewBox="0 0 24 24" fill="none" xmlns="http://www.w3.org/2000/svg">
<path d="M12 0C9.62663 0 7.30655 0.703788 5.33316 2.02236C3.35977 3.34094 1.8217 5.21509 0.913451 7.4078C0.00519945 9.60051 -0.232441 12.0133 0.230582 14.3411C0.693605 16.6689 1.83649 18.8071 3.51472 20.4853C5.19295 22.1635 7.33115 23.3064 9.65892 23.7694C11.9867 24.2324 14.3995 23.9948 16.5922 23.0866C18.7849 22.1783 20.6591 20.6402 21.9776 18.6668C23.2962 16.6935 24 14.3734 24 12C24 8.8174 22.7357 5.76516 20.4853 3.51472C18.2349 1.26428 15.1826 0 12 0ZM12 17.5555C11.5543 17.5559 11.1091 17.5249 10.6677 17.4627C6.35046 20.4859 6.96682 20.2514 8.01546 16.6582C5.90319 15.6205 4.50001 13.7795 4.50001 11.6823C4.50001 8.43682 7.85864 5.80773 12 5.80773C16.1414 5.80773 19.5 8.43682 19.5 11.6809C19.5 14.925 16.1414 17.5555 12 17.5555Z" fill="#333333"/>
<path d="M10.9893 10.351C10.95 10.2291 10.873 10.1229 10.7695 10.0476C10.666 9.97223 10.5412 9.93164 10.4132 9.93164C10.2851 9.93164 10.1604 9.97223 10.0569 10.0476C9.95337 10.1229 9.8764 10.2291 9.83704 10.351C9.22204 12.2601 8.39841 13.4355 8.90432 13.6673C9.57795 13.9728 9.58613 13.2855 9.75386 12.9855H11.0725C11.2334 13.2896 11.2498 13.9782 11.922 13.6673C12.4307 13.4342 11.6166 12.2942 10.9893 10.351ZM9.98159 12.2178L10.4139 10.9987L10.8448 12.2178H9.98159Z" fill="#333333"/>
<path d="M7.85304 13.7317C7.1044 13.7317 7.54622 12.6967 7.42077 10.7685C7.14804 10.7221 6.32031 10.954 6.32031 10.3471C6.32103 10.2353 6.36608 10.1282 6.44557 10.0495C6.52506 9.97078 6.63252 9.92678 6.7444 9.92714C8.31804 10.0403 9.3844 9.63396 9.3844 10.3471C9.3844 10.9649 8.58804 10.7167 8.28531 10.7685C8.15986 12.6899 8.60031 13.7317 7.85304 13.7317Z" fill="#333333"/>
<path d="M12.7212 13.6693C11.9971 13.6693 12.4375 12.6916 12.3121 10.3557C12.3121 9.78702 13.1957 9.78838 13.1957 10.3557V12.8811C13.613 12.937 14.5294 12.6752 14.5294 13.2752C14.5294 13.9038 13.5448 13.5888 12.7266 13.6693H12.7212Z" fill="#333333"/>
<path d="M16.7223 13.5449L15.7078 12.2085L15.5578 12.3585V13.2953C15.5578 13.3521 15.5465 13.4084 15.5247 13.4609C15.5029 13.5133 15.4709 13.5609 15.4306 13.601C15.3903 13.641 15.3425 13.6727 15.2899 13.6942C15.2373 13.7157 15.181 13.7266 15.1241 13.7262C14.3728 13.7262 14.8228 12.6435 14.6919 10.3553C14.6926 10.2412 14.7385 10.1319 14.8194 10.0514C14.9004 9.97095 15.01 9.92578 15.1241 9.92578C15.7773 9.92578 15.4951 10.8503 15.5564 11.2799C16.7837 10.1085 16.7523 9.98442 17.0046 9.98442C17.3523 9.98442 17.5651 10.4167 17.3332 10.6458L16.3473 11.6249L17.4123 13.0267C17.7601 13.4808 17.066 14.0003 16.7223 13.5449Z" fill="#333333"/>
</svg>
