<svg width="24" height="16" viewBox="0 0 24 16" fill="none" xmlns="http://www.w3.org/2000/svg">
<path d="M24 2.0827V13.3449C24.0002 13.6414 23.9366 13.9345 23.8136 14.2044L16.8708 7.26155L23.4539 0.678422C23.8055 1.06152 24.0004 1.5627 24 2.0827ZM8.58089 6.79528L8.58141 6.79584L12.0267 10.2409L22.2422 0.0254531C22.1348 0.00855597 22.0262 4.59151e-05 21.9175 0H2.0827C1.98971 0.000190324 1.89683 0.00657935 1.80469 0.0191249L8.58038 6.79505L8.58089 6.79528ZM0.571876 0.651328C0.204496 1.0373 -0.000278154 1.54984 1.13424e-06 2.0827V13.3449C-0.000323422 13.655 0.0690082 13.9612 0.202876 14.2409L7.18219 7.26155L0.571876 0.651328ZM12.4927 11.6396C12.4315 11.7009 12.3588 11.7494 12.2788 11.7826C12.1988 11.8157 12.1131 11.8328 12.0265 11.8328C11.9399 11.8328 11.8542 11.8157 11.7742 11.7826C11.6942 11.7494 11.6215 11.7009 11.5603 11.6396L8.11467 8.19403L1.11858 15.1901C1.41591 15.3463 1.74681 15.4279 2.0827 15.4276H21.9173C22.2665 15.428 22.6101 15.34 22.9162 15.1718L15.9383 8.19398L12.4927 11.6396Z" fill="url(#paint0_linear_257_2295)"/>
<defs>
<linearGradient id="paint0_linear_257_2295" x1="1.13424e-06" y1="7.7138" x2="24" y2="7.7138" gradientUnits="userSpaceOnUse">
<stop stop-color="#333333"/>
<stop offset="1" stop-color="#333333"/>
</linearGradient>
</defs>
</svg>
