<svg width="14" height="14" viewBox="0 0 14 14" fill="none" xmlns="http://www.w3.org/2000/svg">
<g clip-path="url(#clip0_257_2046)">
<path d="M7 0.683594C8.45717 0.684705 9.86916 1.18945 10.9968 2.11233C12.1245 3.03521 12.8985 4.31949 13.1878 5.74766C13.477 7.17583 13.2638 8.66008 12.5841 9.94902C11.9044 11.238 10.8001 12.2524 9.4582 12.8204C7.91515 13.469 6.17777 13.4789 4.62746 12.8478C3.07715 12.2167 1.84061 10.9962 1.18931 9.45426C0.538016 7.91233 0.52518 6.17496 1.15362 4.62357C1.78207 3.07218 3.00043 1.83355 4.54125 1.17961C5.3191 0.850485 6.15539 0.681777 7 0.683594ZM7 0C3.13359 0 0 3.13441 0 7C0 10.8656 3.13359 14 7 14C10.8664 14 14 10.8661 14 7C14 3.13387 10.8661 0 7 0Z" fill="#858585"/>
<path d="M6.90796 10.4179C6.74744 10.4184 6.59039 10.3713 6.45669 10.2824C6.32299 10.1936 6.21865 10.0671 6.1569 9.91892C6.09515 9.77075 6.07875 9.60759 6.10979 9.4501C6.14082 9.29261 6.2179 9.14787 6.33125 9.03421C6.4446 8.92056 6.58913 8.84309 6.74654 8.81163C6.90394 8.78017 7.06715 8.79612 7.21548 8.85748C7.36381 8.91883 7.4906 9.02282 7.57979 9.15628C7.66899 9.28974 7.71657 9.44666 7.71651 9.60718C7.71659 9.82185 7.63149 10.0278 7.47991 10.1798C7.32832 10.3318 7.12262 10.4174 6.90796 10.4179Z" fill="#858585"/>
<path d="M6.12499 8.05848V8.03523C6.12499 7.75441 6.15616 7.52609 6.21796 7.35684C6.27934 7.1862 6.37208 7.02855 6.4914 6.89199C6.61854 6.74461 6.91659 6.47582 7.37788 6.09273C7.66663 5.85676 7.80745 5.63445 7.80745 5.41379C7.80745 5.20078 7.74073 5.03098 7.60894 4.90574C7.47714 4.78051 7.29202 4.72281 7.04921 4.72281C6.78944 4.72281 6.57015 4.81141 6.39733 4.98613C6.24968 5.1357 6.15124 5.36457 6.10011 5.68395L4.60522 5.49883C4.68315 4.94457 4.90382 4.48902 5.26147 4.14395C5.64812 3.77125 6.2587 3.58203 7.07683 3.58203C7.7153 3.58203 8.23401 3.7152 8.61901 3.9777C9.14073 4.33098 9.39421 4.78734 9.39421 5.37223C9.39221 5.6136 9.32464 5.84989 9.1987 6.05582C9.06417 6.28223 8.77761 6.56934 8.34722 6.90895C8.01554 7.17254 7.80964 7.38309 7.71831 7.55207C7.64312 7.68879 7.59772 7.85969 7.58159 8.05902L6.12499 8.05848Z" fill="#858585"/>
</g>
<defs>
<clipPath id="clip0_257_2046">
<rect width="13.9997" height="14" fill="white"/>
</clipPath>
</defs>
</svg>
