<svg width="24" height="24" viewBox="0 0 24 24" fill="none" xmlns="http://www.w3.org/2000/svg">
<path d="M11.9946 6.54546C13.2 6.54546 14.1764 5.56911 14.1764 4.36362C14.1764 3.95453 14.0619 3.56728 13.8655 3.24L11.9946 0L10.1237 3.24C9.92729 3.56728 9.81274 3.95453 9.81274 4.36362C9.81274 5.56911 10.7891 6.54546 11.9946 6.54546Z" fill="white"/>
<path d="M18.54 9.81819H13.0855V7.63635H10.9036V9.81819H5.44912C3.64365 9.81819 2.17639 11.2854 2.17639 13.0909V14.7709C2.17639 15.9491 3.13638 16.9091 4.31456 16.9091C4.88729 16.9091 5.42181 16.6854 5.82549 16.2818L8.16002 13.9527L10.4891 16.2763C11.2964 17.0836 12.7037 17.0836 13.5109 16.2763L15.8455 13.9527L18.1746 16.2763C18.5782 16.6799 19.1128 16.9036 19.6855 16.9036C20.8637 16.9036 21.8237 15.9436 21.8237 14.7654V13.0909C21.8128 11.2854 20.3455 9.81819 18.54 9.81819Z" fill="white"/>
<path d="M17.0073 17.4382L15.8346 16.2654L14.6564 17.4382C13.2328 18.8618 10.7455 18.8618 9.32189 17.4382L8.14912 16.2654L6.97094 17.4382C6.2673 18.1527 5.32368 18.5454 4.31456 18.5454C3.52363 18.5454 2.78727 18.2945 2.17639 17.8745V22.9091C2.17639 23.5091 2.6673 24 3.26728 24H20.7218C21.3218 24 21.8127 23.5091 21.8127 22.9091V17.8746C21.2018 18.2945 20.4709 18.5455 19.6746 18.5455C18.6655 18.5455 17.7219 18.1527 17.0073 17.4382Z" fill="white"/>
</svg>
