<svg width="20" height="20" viewBox="0 0 20 20" fill="none" xmlns="http://www.w3.org/2000/svg">
<g clip-path="url(#clip0_721_2355)">
<path d="M19.0761 16.638L16.219 13.7809C16.085 13.647 15.9034 13.5718 15.714 13.5718C15.5246 13.5718 15.3429 13.647 15.209 13.7809L14.9997 13.9902L13.9954 12.9859C15.2239 11.4978 15.8325 9.59387 15.6947 7.6691C15.557 5.74433 14.6836 3.94645 13.2557 2.64846C11.8277 1.35046 9.95495 0.651985 8.0258 0.697932C6.09665 0.743878 4.25923 1.53072 2.89473 2.89522C1.53023 4.25972 0.74339 6.09714 0.697444 8.02629C0.651497 9.95544 1.34997 11.8282 2.64797 13.2561C3.94596 14.6841 5.74384 15.5575 7.66861 15.6952C9.59339 15.833 11.4973 15.2244 12.9854 13.9959L13.9897 15.0002L13.7804 15.2095C13.6465 15.3434 13.5713 15.5251 13.5713 15.7145C13.5713 15.9039 13.6465 16.0855 13.7804 16.2195L16.6375 19.0766C16.9609 19.4 17.3995 19.5816 17.8568 19.5816C18.3141 19.5816 18.7527 19.4 19.0761 19.0766C19.3995 18.7532 19.5812 18.3146 19.5812 17.8573C19.5812 17.4 19.3995 16.9614 19.0761 16.638ZM2.14254 8.21446C2.14254 7.01364 2.49862 5.83979 3.16576 4.84135C3.8329 3.84291 4.78113 3.06472 5.89053 2.60519C6.99994 2.14566 8.22071 2.02542 9.39845 2.25969C10.5762 2.49396 11.658 3.07221 12.5071 3.92131C13.3562 4.77041 13.9345 5.85224 14.1687 7.02998C14.403 8.20772 14.2828 9.42849 13.8232 10.5379C13.3637 11.6473 12.5855 12.5955 11.5871 13.2627C10.5886 13.9298 9.41479 14.2859 8.21397 14.2859C6.60431 14.284 5.06111 13.6437 3.92291 12.5055C2.78471 11.3673 2.14443 9.82412 2.14254 8.21446Z" fill="#333333"/>
</g>
<defs>
<clipPath id="clip0_721_2355">
<rect width="20" height="20" fill="white"/>
</clipPath>
</defs>
</svg>
