<svg width="24" height="24" viewBox="0 0 24 24" fill="none" xmlns="http://www.w3.org/2000/svg">
<g clip-path="url(#clip0_27_45)">
<path d="M24 6.3689V17.6311C24.0002 17.9276 23.9366 18.2207 23.8136 18.4906L16.8708 11.5477L23.4539 4.96462C23.8055 5.34772 24.0004 5.8489 24 6.3689ZM8.58089 11.0815L8.58141 11.082L12.0267 14.5271L22.2422 4.31165C22.1348 4.29475 22.0262 4.28624 21.9175 4.28619H2.0827C1.98971 4.28638 1.89683 4.29277 1.80469 4.30532L8.58038 11.0812L8.58089 11.0815ZM0.571876 4.93752C0.204496 5.32349 -0.000278154 5.83603 1.13424e-06 6.3689V17.6311C-0.000323422 17.9412 0.0690082 18.2474 0.202876 18.5271L7.18219 11.5477L0.571876 4.93752ZM12.4927 15.9258C12.4315 15.987 12.3588 16.0356 12.2788 16.0688C12.1988 16.1019 12.1131 16.1189 12.0265 16.1189C11.9399 16.1189 11.8542 16.1019 11.7742 16.0688C11.6942 16.0356 11.6215 15.987 11.5603 15.9258L8.11467 12.4802L1.11858 19.4763C1.41591 19.6325 1.74681 19.714 2.0827 19.7138H21.9173C22.2665 19.7142 22.6101 19.6262 22.9162 19.458L15.9383 12.4802L12.4927 15.9258Z" fill="url(#paint0_linear_27_45)"/>
</g>
<defs>
<linearGradient id="paint0_linear_27_45" x1="1.13424e-06" y1="12" x2="24" y2="12" gradientUnits="userSpaceOnUse">
<stop stop-color="white"/>
<stop offset="1" stop-color="white"/>
</linearGradient>
<clipPath id="clip0_27_45">
<rect width="24" height="24" fill="white"/>
</clipPath>
</defs>
</svg>
