<svg width="24" height="24" viewBox="0 0 24 24" fill="none" xmlns="http://www.w3.org/2000/svg">
<path d="M22.2824 17.4075C22.2127 17.4777 22.1297 17.5335 22.0383 17.5716C21.9469 17.6097 21.8489 17.6293 21.7499 17.6293C21.6509 17.6293 21.5529 17.6097 21.4615 17.5716C21.3701 17.5335 21.2871 17.4777 21.2174 17.4075L11.9999 8.18245L2.78239 17.4075C2.64117 17.5487 2.44962 17.628 2.24989 17.628C2.05017 17.628 1.85862 17.5487 1.71739 17.4075C1.57617 17.2662 1.49683 17.0747 1.49683 16.875C1.49683 16.6752 1.57617 16.4837 1.71739 16.3425L11.4674 6.59245C11.5371 6.52216 11.6201 6.46636 11.7115 6.42829C11.8029 6.39021 11.9009 6.37061 11.9999 6.37061C12.0989 6.37061 12.1969 6.39021 12.2883 6.42829C12.3797 6.46636 12.4627 6.52216 12.5324 6.59245L22.2824 16.3425C22.3527 16.4122 22.4085 16.4951 22.4466 16.5865C22.4846 16.6779 22.5042 16.7759 22.5042 16.875C22.5042 16.974 22.4846 17.072 22.4466 17.1634C22.4085 17.2548 22.3527 17.3377 22.2824 17.4075Z" fill="white"/>
</svg>
