<svg width="32" height="32" viewBox="0 0 32 32" fill="none" xmlns="http://www.w3.org/2000/svg">
<path d="M26.3742 21.8685L23.3457 18.84L21.7772 17.267C21.2212 16.716 20.2792 17.1115 20.2792 17.8935L20.7127 20.1495H13.2642C12.5147 20.1495 11.7957 19.852 11.2657 19.322L8.62666 16.683C8.17016 16.226 7.57166 16 6.96866 16C6.24216 16 5.50866 16.3335 5.03816 17.0095C4.38116 17.953 4.56016 19.2485 5.37316 20.0615L6.07866 20.767L8.76866 23.457C9.65216 24.3405 10.8502 24.8365 12.0992 24.8365H20.7127L20.2792 27.0925C20.2792 27.8745 21.2212 28.2655 21.7772 27.714L23.3457 26.1455L26.3742 23.112C26.5487 22.9375 26.6382 22.7165 26.6382 22.4905C26.6382 22.269 26.5487 22.043 26.3742 21.8685Z" fill="#9D9D9D"/>
<path d="M5.6263 10.1316L8.65481 13.1601L10.2233 14.7331C10.7793 15.2841 11.7213 14.8886 11.7213 14.1066L11.2878 11.8506H18.7368C19.4863 11.8506 20.2053 12.1481 20.7353 12.6781L23.3743 15.3171C23.8303 15.7741 24.4288 16.0001 25.0318 16.0001C25.7583 16.0001 26.4918 15.6666 26.9623 14.9906C27.6193 14.0471 27.4403 12.7516 26.6273 11.9386L25.9218 11.2331L23.2318 8.54307C22.3483 7.65957 21.1503 7.16357 19.9013 7.16357H11.2878L11.7213 4.90757C11.7213 4.12557 10.7793 3.73457 10.2233 4.28607L8.65481 5.85457L5.6263 8.88807C5.4518 9.06257 5.3623 9.28357 5.3623 9.50957C5.3623 9.73107 5.4518 9.95707 5.6263 10.1316Z" fill="#9D9D9D"/>
</svg>
