<svg width="16" height="16" viewBox="0 0 16 16" fill="none" xmlns="http://www.w3.org/2000/svg">
<path d="M9.76119 6.23646C9.57166 6.04581 9.36151 5.87681 9.13464 5.73256C8.53375 5.34778 7.83519 5.14332 7.12166 5.14332C6.13131 5.14147 5.1812 5.53497 4.48213 6.23646L1.09074 9.63051C0.392868 10.3297 0.000625661 11.2771 7.72806e-07 12.265C-0.00131149 14.3265 1.66876 15.9987 3.73027 16C4.71909 16.0035 5.66833 15.6118 6.36714 14.9122L9.16664 12.1127C9.2175 12.0623 9.2459 11.9935 9.2455 11.9219C9.24465 11.7746 9.12458 11.656 8.97733 11.6568H8.87069C8.28579 11.6589 7.70612 11.5465 7.16434 11.3262C7.06451 11.2851 6.94978 11.3083 6.87374 11.3849L4.86075 13.4005C4.23568 14.0256 3.22223 14.0256 2.59716 13.4005C1.97208 12.7754 1.97208 11.762 2.59716 11.1369L6.00189 7.73485C6.62647 7.11106 7.63826 7.11106 8.26283 7.73485C8.68375 8.131 9.34032 8.131 9.76122 7.73485C9.94231 7.5536 10.0521 7.31321 10.0705 7.05763C10.09 6.75222 9.97733 6.45311 9.76119 6.23646Z" fill="#858585"/>
<path d="M14.9041 1.09333C13.4463 -0.364442 11.0828 -0.364442 9.625 1.09333L6.82816 3.88748C6.75136 3.96466 6.72921 4.08073 6.77217 4.18077C6.81463 4.2811 6.91386 4.34549 7.02278 4.3434H7.12142C7.70563 4.34234 8.28437 4.45554 8.82511 4.67668C8.92494 4.71777 9.03967 4.69459 9.11572 4.61804L11.1234 2.61305C11.7484 1.98798 12.7619 1.98798 13.3869 2.61305C14.012 3.23813 14.012 4.25157 13.3869 4.87665L10.8861 7.37486L10.8647 7.39885L9.99022 8.26804C9.36564 8.89183 8.35385 8.89183 7.72928 8.26804C7.30835 7.87189 6.65178 7.87189 6.23089 8.26804C6.04864 8.45066 5.93876 8.69315 5.9216 8.95057C5.90211 9.25599 6.01474 9.55509 6.23089 9.77177C6.53949 10.0817 6.90055 10.3344 7.29736 10.5183C7.35335 10.5449 7.40934 10.5663 7.46533 10.5903C7.52132 10.6143 7.57996 10.6329 7.63595 10.6543C7.69194 10.6756 7.75059 10.6943 7.80658 10.7103L7.96389 10.7529C8.07053 10.7796 8.1772 10.8009 8.28649 10.8196C8.41815 10.8391 8.55076 10.8516 8.68376 10.8569H8.87039H8.88638L9.04635 10.8382C9.105 10.8356 9.16633 10.8222 9.23566 10.8222H9.3263L9.51027 10.7956L9.5956 10.7796L9.75023 10.7476H9.77957C10.4345 10.5831 11.0325 10.244 11.5099 9.76643L14.904 6.37238C16.3618 4.91461 16.3618 2.5511 14.9041 1.09333Z" fill="#858585"/>
</svg>
